<svg width="47" height="46" viewBox="0 0 47 46" fill="none" xmlns="http://www.w3.org/2000/svg">
<circle cx="23.5156" cy="23" r="23" fill="#FFD600"/>
<path d="M22.0469 24.2422C22.0469 26.6016 21.5586 28.4062 20.582 29.6562C19.6055 30.9062 18.1758 31.5312 16.293 31.5312C14.4336 31.5312 13.0117 30.918 12.0273 29.6914C11.043 28.4648 10.5391 26.707 10.5156 24.418V21.2773C10.5156 18.8945 11.0078 17.0859 11.9922 15.8516C12.9844 14.6172 14.4102 14 16.2695 14C18.1289 14 19.5508 14.6133 20.5352 15.8398C21.5195 17.0586 22.0234 18.8125 22.0469 21.1016V24.2422ZM18.6602 20.7969C18.6602 19.3828 18.4648 18.3555 18.0742 17.7148C17.6914 17.0664 17.0898 16.7422 16.2695 16.7422C15.4727 16.7422 14.8828 17.0508 14.5 17.668C14.125 18.2773 13.9258 19.2344 13.9023 20.5391V24.6875C13.9023 26.0781 14.0898 27.1133 14.4648 27.793C14.8477 28.4648 15.457 28.8008 16.293 28.8008C17.1211 28.8008 17.7188 28.4766 18.0859 27.8281C18.4531 27.1797 18.6445 26.1875 18.6602 24.8516V20.7969Z" fill="white"/>
<path d="M36.0391 31.2969H24.3438V28.9766L29.8633 23.0938C30.6211 22.2656 31.1797 21.543 31.5391 20.9258C31.9062 20.3086 32.0898 19.7227 32.0898 19.168C32.0898 18.4102 31.8984 17.8164 31.5156 17.3867C31.1328 16.9492 30.5859 16.7305 29.875 16.7305C29.1094 16.7305 28.5039 16.9961 28.0586 17.5273C27.6211 18.0508 27.4023 18.7422 27.4023 19.6016H24.0039C24.0039 18.5625 24.25 17.6133 24.7422 16.7539C25.2422 15.8945 25.9453 15.2227 26.8516 14.7383C27.7578 14.2461 28.7852 14 29.9336 14C31.6914 14 33.0547 14.4219 34.0234 15.2656C35 16.1094 35.4883 17.3008 35.4883 18.8398C35.4883 19.6836 35.2695 20.543 34.832 21.418C34.3945 22.293 33.6445 23.3125 32.582 24.4766L28.7031 28.5664H36.0391V31.2969Z" fill="white"/>
</svg>
