<svg width="47" height="47" viewBox="0 0 47 47" fill="none" xmlns="http://www.w3.org/2000/svg">
<circle cx="23.6328" cy="23.8047" r="23" fill="#FFD600"/>
<path d="M22.1641 25.0469C22.1641 27.4062 21.6758 29.2109 20.6992 30.4609C19.7227 31.7109 18.293 32.3359 16.4102 32.3359C14.5508 32.3359 13.1289 31.7227 12.1445 30.4961C11.1602 29.2695 10.6562 27.5117 10.6328 25.2227V22.082C10.6328 19.6992 11.125 17.8906 12.1094 16.6562C13.1016 15.4219 14.5273 14.8047 16.3867 14.8047C18.2461 14.8047 19.668 15.418 20.6523 16.6445C21.6367 17.8633 22.1406 19.6172 22.1641 21.9062V25.0469ZM18.7773 21.6016C18.7773 20.1875 18.582 19.1602 18.1914 18.5195C17.8086 17.8711 17.207 17.5469 16.3867 17.5469C15.5898 17.5469 15 17.8555 14.6172 18.4727C14.2422 19.082 14.043 20.0391 14.0195 21.3438V25.4922C14.0195 26.8828 14.207 27.918 14.582 28.5977C14.9648 29.2695 15.5742 29.6055 16.4102 29.6055C17.2383 29.6055 17.8359 29.2812 18.2031 28.6328C18.5703 27.9844 18.7617 26.9922 18.7773 25.6562V21.6016Z" fill="white"/>
<path d="M27.9062 22.0703H29.7109C30.5703 22.0703 31.207 21.8555 31.6211 21.4258C32.0352 20.9961 32.2422 20.4258 32.2422 19.7148C32.2422 19.0273 32.0352 18.4922 31.6211 18.1094C31.2148 17.7266 30.6523 17.5352 29.9336 17.5352C29.2852 17.5352 28.7422 17.7148 28.3047 18.0742C27.8672 18.4258 27.6484 18.8867 27.6484 19.457H24.2617C24.2617 18.5664 24.5 17.7695 24.9766 17.0664C25.4609 16.3555 26.1328 15.8008 26.9922 15.4023C27.8594 15.0039 28.8125 14.8047 29.8516 14.8047C31.6562 14.8047 33.0703 15.2383 34.0938 16.1055C35.1172 16.9648 35.6289 18.1523 35.6289 19.668C35.6289 20.4492 35.3906 21.168 34.9141 21.8242C34.4375 22.4805 33.8125 22.9844 33.0391 23.3359C34 23.6797 34.7148 24.1953 35.1836 24.8828C35.6602 25.5703 35.8984 26.3828 35.8984 27.3203C35.8984 28.8359 35.3438 30.0508 34.2344 30.9648C33.1328 31.8789 31.6719 32.3359 29.8516 32.3359C28.1484 32.3359 26.7539 31.8867 25.668 30.9883C24.5898 30.0898 24.0508 28.9023 24.0508 27.4258H27.4375C27.4375 28.0664 27.6758 28.5898 28.1523 28.9961C28.6367 29.4023 29.2305 29.6055 29.9336 29.6055C30.7383 29.6055 31.3672 29.3945 31.8203 28.9727C32.2812 28.543 32.5117 27.9766 32.5117 27.2734C32.5117 25.5703 31.5742 24.7188 29.6992 24.7188H27.9062V22.0703Z" fill="white"/>
</svg>
